<?xml version="1.0" encoding="UTF-8"?>
<svg class="icon icon--logo" xmlns="http://www.w3.org/2000/svg" viewBox="0 0 36.48 35.02">
    <defs><style>.cls-1{fill:#302a38;}</style></defs>
    <path class="cls-1" d="M63.21,46.75a2.06,2.06,0,0,0,.28-1v-.23a1,1,0,0,1-.62-.29,1.1,1.1,0,0,1-.24-.74,2.67,2.67,0,0,0-.69-.09h-.67a2.36,2.36,0,0,0,.56,1.6A2.23,2.23,0,0,0,63.21,46.75Z" transform="translate(-29.36 -29.48)"></path>
    <path class="cls-1" d="M57.88,44.68a2,2,0,0,0-.31-.92,1.89,1.89,0,0,0-.32-.37l-.16.08a9.78,9.78,0,0,1-4,1.27A2.9,2.9,0,0,1,52,44.56a5.13,5.13,0,0,1-1.87.6,4.26,4.26,0,0,0,1.12.58,6.18,6.18,0,0,0,2,.3,10.14,10.14,0,0,0,4.49-1.3Z" transform="translate(-29.36 -29.48)"></path>
    <path class="cls-1" d="M64.79,43.13a4,4,0,0,0-2.87-1,8.06,8.06,0,0,0-1.55.15,4.73,4.73,0,0,1,.57,1.35,6.74,6.74,0,0,1,1-.08,2.57,2.57,0,0,1,1.82.61,2.13,2.13,0,0,1,.61,1.57,3.5,3.5,0,0,1-1,2.27,6.15,6.15,0,0,0-1.07,1.92,6,6,0,0,0-3.76,1.45,4.29,4.29,0,0,0-1.37,3.21H58.7a2.85,2.85,0,0,1,.92-2.18,4.93,4.93,0,0,1,3.93-1,5.08,5.08,0,0,1,1.09-2.55,4.94,4.94,0,0,0,1.2-3.08A3.48,3.48,0,0,0,64.79,43.13Z" transform="translate(-29.36 -29.48)"></path>
    <path class="cls-1" d="M37.92,54.56a4.29,4.29,0,0,0-1.37-3.21,6,6,0,0,0-3.76-1.45A6.6,6.6,0,0,0,31.72,48a3.59,3.59,0,0,1-.94-2.28,2.15,2.15,0,0,1,.61-1.57,2.59,2.59,0,0,1,1.83-.61,6.74,6.74,0,0,1,1,.08,5.14,5.14,0,0,1,.56-1.35,8,8,0,0,0-1.54-.15,4,4,0,0,0-2.88,1,3.54,3.54,0,0,0-1,2.58,4.84,4.84,0,0,0,1.2,3.08,4.73,4.73,0,0,1,1,1.94l.11.61h.65a4.59,4.59,0,0,1,3.29,1.06,2.89,2.89,0,0,1,.91,2.18Z" transform="translate(-29.36 -29.48)"></path>
    <path class="cls-1" d="M45,45.16a5.49,5.49,0,0,1-2-.66,3.84,3.84,0,0,1-1.17.15A8.93,8.93,0,0,1,38,43.47l-.15-.08a1.9,1.9,0,0,0-.63,1.29l.12.06a10.18,10.18,0,0,0,4.5,1.3,6.18,6.18,0,0,0,2-.3A4.2,4.2,0,0,0,45,45.16Z" transform="translate(-29.36 -29.48)"></path>
    <polygon class="cls-1" points="7.81 32.64 8.56 32.64 8.56 30.52 8.56 28.4 7.81 28.4 7.07 28.4 7.07 30.52 7.07 32.64 7.81 32.64"></polygon>
    <polygon class="cls-1" points="7.07 33.63 7.07 34.36 7.07 35.02 18.21 35.02 29.34 35.02 29.34 34.36 29.34 33.63 18.21 33.63 7.07 33.63"></polygon>
    <polygon class="cls-1" points="11.53 30.52 11.53 29.13 10.78 29.13 10.04 29.13 10.04 30.52 10.04 31.91 10.78 31.91 11.53 31.91 11.53 30.52"></polygon>
    <polygon class="cls-1" points="14.5 30.52 14.5 29.13 13.75 29.13 13.01 29.13 13.01 30.52 13.01 31.91 13.75 31.91 14.5 31.91 14.5 30.52"></polygon>
    <polygon class="cls-1" points="17.47 30.52 17.47 28.4 16.72 28.4 15.98 28.4 15.98 30.52 15.98 32.64 16.72 32.64 17.47 32.64 17.47 30.52"></polygon>
    <polygon class="cls-1" points="20.43 30.52 20.43 28.4 19.69 28.4 18.95 28.4 18.95 30.52 18.95 32.64 19.69 32.64 20.43 32.64 20.43 30.52"></polygon>
    <polygon class="cls-1" points="23.4 30.52 23.4 29.13 22.66 29.13 21.92 29.13 21.92 30.52 21.92 31.91 22.66 31.91 23.4 31.91 23.4 30.52"></polygon>
    <polygon class="cls-1" points="26.37 30.52 26.37 29.13 25.63 29.13 24.89 29.13 24.89 30.52 24.89 31.91 25.63 31.91 26.37 31.91 26.37 30.52"></polygon>
    <polygon class="cls-1" points="27.86 28.4 27.86 30.52 27.86 32.64 28.6 32.64 29.34 32.64 29.34 30.52 29.34 28.4 28.6 28.4 27.86 28.4"></polygon>
    <ellipse class="cls-1" cx="14.69" cy="4.2" rx="0.78" ry="0.76"></ellipse>
    <ellipse class="cls-1" cx="18.21" cy="0.76" rx="0.78" ry="0.76"></ellipse>
    <ellipse class="cls-1" cx="21.72" cy="4.2" rx="0.78" ry="0.76"></ellipse>
    <polygon class="cls-1" points="7.07 26.05 7.07 26.78 7.07 27.43 18.21 27.43 29.34 27.43 29.34 26.78 29.34 26.05 18.21 26.05 7.07 26.05"></polygon>
    <path class="cls-1" d="M44.6,38.17a3,3,0,1,0,3.78-2.79h0a.27.27,0,0,1-.2-.26v-.84h1.37V33.07H48.19V31.72H47v1.35H45.57v1.21H47v.84a.27.27,0,0,1-.2.26h0A2.93,2.93,0,0,0,44.6,38.17Zm3-1.57A1.58,1.58,0,1,1,46,38.17a1.58,1.58,0,0,1,1.6-1.57Z" transform="translate(-29.36 -29.48)"></path>
    <path class="cls-1" d="M37.44,49.9a5.69,5.69,0,0,1,2,4.66h1.49A7,7,0,0,0,38.54,49a9.76,9.76,0,0,1-1.69-2.25,3.35,3.35,0,0,1,0-3.38,3,3,0,0,1,2.57-1.27,5.39,5.39,0,0,1,3.15,1.16,5.4,5.4,0,0,0,3,1.15A2.69,2.69,0,0,0,46.83,44v2a.26.26,0,0,1-.2.25h0a2.22,2.22,0,0,0-1.18.62,2.87,2.87,0,0,0-.82,1.72,2.43,2.43,0,0,0-2.55,2.29V51a2.6,2.6,0,0,0,2.24,2.58c1,.18,1,.62,1,1h1.49a2.38,2.38,0,0,0-2.12-2.3c-.91-.2-1.15-.76-1.15-1.16,0-1.08,1.26-1.35,2.49-1.06,0-1.24.09-1.77.46-2.14a1.59,1.59,0,0,1,2.06,0c.38.37.51.9.46,2.14,1.23-.29,2.5,0,2.5,1.06a1.21,1.21,0,0,1-1.15,1.16,2.38,2.38,0,0,0-2.12,2.3h1.48c0-.33.07-.77,1-1A2.59,2.59,0,0,0,53.06,51a2.42,2.42,0,0,0-2.46-2.4h-.1a2.86,2.86,0,0,0-.81-1.72,2.29,2.29,0,0,0-1.18-.62h0a.25.25,0,0,1-.2-.25V43.92a2,2,0,0,0,1.24.44,5.4,5.4,0,0,0,3-1.15,5.36,5.36,0,0,1,3.14-1.16,3,3,0,0,1,2.57,1.27,3.3,3.3,0,0,1,0,3.38,11.56,11.56,0,0,1-1.71,2.39,7.43,7.43,0,0,0-2.32,5.47h1.48a6.12,6.12,0,0,1,2-4.56,12.94,12.94,0,0,0,1.91-2.68,5.35,5.35,0,0,0,.61-2.54,4.25,4.25,0,0,0-.67-2.22,4.43,4.43,0,0,0-3.83-1.93,7,7,0,0,0-4,1.4,4,4,0,0,1-2.2.91c-.87,0-1.24-.55-1.24-1H46.83c0,.46-.38,1-1.24,1A4,4,0,0,1,43.38,42a7,7,0,0,0-4-1.4,4.41,4.41,0,0,0-3.82,1.93,4.17,4.17,0,0,0-.68,2.22,5.33,5.33,0,0,0,.62,2.54A11,11,0,0,0,37.44,49.9Z" transform="translate(-29.36 -29.48)"></path>
    <path class="cls-1" d="M31.66,45.47a2.46,2.46,0,0,0,.26,1.28,2.29,2.29,0,0,0,2.13-2.29,3.05,3.05,0,0,0-1.41-.05,1,1,0,0,1-.94,1.06Z" transform="translate(-29.36 -29.48)"></path>
    </svg>